<svg width="32" height="29" viewBox="0 0 32 29" fill="none" xmlns="http://www.w3.org/2000/svg">
<path d="M16.3103 0.0344238C7.7402 0.0344238 0.793091 5.5343 0.793091 12.319C0.793091 16.7353 3.73689 20.605 8.1542 22.7705C7.82943 23.9845 6.97893 27.1667 6.8085 27.8478C6.59869 28.693 7.118 28.6818 7.45804 28.454C7.72492 28.276 11.7105 25.5631 13.43 24.3918C14.3633 24.5303 15.3256 24.6036 16.3103 24.6036C24.8805 24.6036 31.8276 19.1029 31.8276 12.319C31.8276 5.53511 24.8797 0.0344238 16.3103 0.0344238Z" fill="#391B1B"/>
<path d="M10.0642 8.87732H5.54821C5.12341 8.87732 4.78021 9.22132 4.78021 9.64531C4.78021 10.0693 5.12421 10.4133 5.54821 10.4133H7.01619V15.8229C7.01619 16.0197 7.09619 16.2133 7.23699 16.3533C7.37459 16.4925 7.56739 16.5725 7.76499 16.5725H7.92899C8.12579 16.5725 8.31778 16.4925 8.45618 16.3533C8.59698 16.2133 8.67698 16.0205 8.67698 15.8229V10.4133H10.0634C10.4882 10.4133 10.8322 10.0693 10.8322 9.64531C10.8322 9.22132 10.4882 8.87732 10.0634 8.87732H10.0642Z" fill="#FAE300"/>
<path d="M20.9177 15.1276H18.8177V9.60288C18.8177 9.14209 18.4449 8.76929 17.9849 8.76929C17.5249 8.76929 17.1521 9.14209 17.1521 9.60288V15.558C17.1521 15.6044 17.1577 15.6476 17.1649 15.6916C17.1569 15.7348 17.1521 15.7796 17.1521 15.8244C17.1521 16.21 17.4633 16.522 17.8489 16.522H20.9177C21.3041 16.522 21.6145 16.21 21.6145 15.8244C21.6145 15.4388 21.3033 15.1276 20.9177 15.1276Z" fill="#FAE300"/>
<path d="M27.6265 15.3812L25.2865 12.3077L27.4009 10.1925C27.6873 9.90688 27.6873 9.44208 27.4009 9.15568C27.1145 8.86929 26.6505 8.86929 26.3633 9.15568L23.7457 11.7733V9.60288C23.7457 9.14209 23.3729 8.76929 22.9129 8.76929C22.4529 8.76929 22.0793 9.14209 22.0793 9.60288V15.7412C22.0793 16.202 22.4521 16.5748 22.9129 16.5748C23.3737 16.5748 23.7457 16.2028 23.7457 15.7412V13.8477L24.2217 13.3725L26.4353 16.2772C26.6817 16.606 27.1497 16.674 27.4785 16.4252C27.8073 16.178 27.8737 15.7108 27.6265 15.3812Z" fill="#FAE300"/>
<path d="M16.5251 15.5805L14.2747 9.42375C14.2747 9.42375 14.2691 9.41895 14.2675 9.41655C14.1235 9.04135 13.7083 8.76855 13.2131 8.76855C12.6636 8.76855 12.2092 9.10455 12.1188 9.54375C12.1036 9.57655 12.0884 9.60935 12.0756 9.64455L9.86277 15.5805C9.72597 15.9701 9.93077 16.3957 10.3188 16.5325C10.7076 16.6693 11.134 16.4645 11.2708 16.0757L11.654 14.9829H14.7339L15.1163 16.0757C15.2531 16.4645 15.6795 16.6693 16.0683 16.5325C16.4571 16.3957 16.6619 15.9701 16.5251 15.5805ZM12.1428 13.5869L13.1779 10.6333C13.1899 10.6333 13.1995 10.6365 13.2115 10.6365L14.2459 13.5869H12.1436H12.1428Z" fill="#FAE300"/>
</svg>
